<?xml version="1.0" encoding="utf-8"?>
<!-- Generator: Adobe Illustrator 15.0.0, SVG Export Plug-In  -->
<!DOCTYPE svg PUBLIC "-//W3C//DTD SVG 1.1//EN" "http://www.w3.org/Graphics/SVG/1.1/DTD/svg11.dtd" [
	<!ENTITY ns_flows "http://ns.adobe.com/Flows/1.0/">
]>
<svg version="1.1"
	 xmlns="http://www.w3.org/2000/svg" xmlns:xlink="http://www.w3.org/1999/xlink" xmlns:a="http://ns.adobe.com/AdobeSVGViewerExtensions/3.0/"
	 x="0px" y="0px" width="44px" height="43px" viewBox="0 0 44 43" enable-background="new 0 0 44 43" xml:space="preserve">
<defs>
</defs>
<path fill="#FFFFFF" d="M25.866,6.6C26.014,6.981,26,7.294,25.991,7.679c-0.012,0.786-0.171,1.564-0.57,2.132
	c-0.483,0.732-1.042,1.443-1.647,2.122c-1.219,1.353-2.646,2.551-4.18,3.601c-3.062,2.132-6.534,3.691-10.155,4.906
	c-0.237,0.079-0.382,0.324-0.331,0.575c0.056,0.271,0.32,0.445,0.591,0.39l0.008-0.002c3.808-0.78,7.561-2.154,10.954-4.237
	c1.686-1.058,3.283-2.286,4.703-3.739c0.713-0.724,1.375-1.512,1.94-2.394c0.692-1.035,0.929-2.232,0.93-3.358
	c-0.014-0.576-0.084-1.156-0.294-1.766c-0.214-0.574-0.566-1.343-1.512-1.741c-0.46-0.183-0.965-0.169-1.346-0.066
	c-0.393,0.099-0.693,0.265-0.962,0.436c-0.528,0.35-0.918,0.744-1.274,1.146c-1.367,1.598-2.352,3.364-3.112,5.241
	c-1.511,3.748-2.032,7.698-2.554,11.498c-0.498,3.801-0.926,7.568-2.378,10.896c-0.732,1.652-1.774,3.153-3.129,4.351
	c-1.332,1.22-2.979,2.112-4.671,2.789C5.481,41.051,3.62,40.78,2.569,39.69c-0.521-0.529-0.783-1.214-0.672-1.823
	c0.097-0.613,0.565-1.197,1.233-1.638c0.322-0.212,0.73-0.427,1.078-0.552c0.4-0.146,0.867-0.284,1.324-0.427
	c0.923-0.283,1.86-0.583,2.785-0.913c1.852-0.659,3.65-1.466,5.4-2.35c3.501-1.774,6.786-3.923,9.886-6.284
	c3.11-2.352,6.035-4.929,8.816-7.64c2.773-2.721,5.411-5.57,7.936-8.511l1.869-2.227c0.611-0.726,1.318-1.603,1.733-2.68
	c0.209-0.542,0.361-1.16,0.313-1.854c-0.042-0.687-0.37-1.452-0.934-1.944c-1.159-0.994-2.567-0.956-3.68-0.686
	c-1.145,0.288-2.156,0.881-3.003,1.625c-0.771,0.692-1.473,1.474-2.056,2.298c-1.167,1.665-2.111,3.448-2.876,5.294
	c-1.527,3.693-2.351,7.648-2.446,11.617c-0.099,3.968,0.565,7.947,1.949,11.646c1.385,3.702,3.516,7.075,6.061,10.027
	c0.174,0.201,0.479,0.232,0.69,0.066c0.216-0.172,0.253-0.486,0.082-0.703c-4.711-5.955-7.335-13.483-6.873-20.962
	c0.207-3.726,1.102-7.41,2.626-10.787c0.762-1.687,1.686-3.297,2.776-4.752c0.554-0.729,1.082-1.437,1.675-2.104
	c0.522-0.602,1.196-1.068,1.917-1.274c0.711-0.213,1.472-0.105,1.796,0.203c0.165,0.147,0.251,0.326,0.279,0.598
	c0.023,0.271-0.039,0.615-0.175,0.969c-0.277,0.73-0.774,1.397-1.397,2.141l-1.83,2.209c-2.464,2.923-5.054,5.738-7.788,8.401
	c-5.455,5.319-11.499,10.102-18.262,13.498c-1.685,0.854-3.423,1.587-5.185,2.253c-0.883,0.334-1.774,0.638-2.686,0.936
	c-0.459,0.152-0.915,0.294-1.416,0.485c-0.552,0.218-0.996,0.466-1.474,0.787c-0.912,0.622-1.809,1.626-2.001,2.948
	c-0.203,1.317,0.397,2.591,1.24,3.399c1.732,1.68,4.308,1.88,6.35,1.101c1.88-0.742,3.641-1.762,5.209-3.084
	c1.552-1.332,2.846-2.987,3.778-4.806c1.896-3.667,2.355-7.704,2.786-11.508c0.394-3.819,0.714-7.626,2.079-11.06
	c0.68-1.688,1.637-3.314,2.837-4.592c0.295-0.306,0.668-0.678,0.898-0.745C25.477,6.213,25.728,6.244,25.866,6.6z"/>
</svg>
