<?xml version="1.0" encoding="utf-8"?>
<!-- Generator: Adobe Illustrator 15.0.0, SVG Export Plug-In . SVG Version: 6.00 Build 0)  -->
<!DOCTYPE svg PUBLIC "-//W3C//DTD SVG 1.1//EN" "http://www.w3.org/Graphics/SVG/1.1/DTD/svg11.dtd">
<svg version="1.1" id="Layer_1" xmlns="http://www.w3.org/2000/svg" xmlns:xlink="http://www.w3.org/1999/xlink" x="0px" y="0px"
	 width="24px" height="24px" viewBox="0 0 24 24" enable-background="new 0 0 24 24" xml:space="preserve">
<path fill="none" d="M0,0h24v24H0V0z"/>
<path d="M15,2H5C3.9,2,3,2.9,3,4v12h2V4h10V2z M18,6H9C7.9,6,7,6.9,7,8v12c0,1.1,0.9,2,2,2h9c1.1,0,2-0.9,2-2V8C20,6.9,19.1,6,18,6z
	 M18,20H9V8h9V20z"/>
</svg>
