<svg version="1.1" xmlns="http://www.w3.org/2000/svg" xmlns:xlink="http://www.w3.org/1999/xlink" x="0px" y="0px"
	 width="512px" height="512px" viewBox="0 0 512 512" enable-background="new 0 0 512 512" xml:space="preserve">
<path d="M467.797,89.464c-1.621-0.5-3.32-0.718-5.007-0.652H125.623c-11.168,0.37-20.735,8.098-23.414,18.949L34.226,404.242
	c-2.47,7.609,1.698,15.783,9.306,18.255c1.666,0.544,3.429,0.771,5.181,0.685h337.713c11.166-0.348,20.733-8.099,23.411-18.939
	l67.985-295.927C480.26,100.349,475.776,91.902,467.797,89.464z M110.073,384.338c-6.691-8.79-5.118-21.321,3.522-28.194
	l144.536-104.59v-2.353l-90.485-96.35c-7.322-8.171-6.794-20.679,1.182-28.207c7.184-7.78,19.324-8.273,27.116-1.078
	c0.38,0.344,0.735,0.699,1.079,1.078l109.294,116.341c6.759,5.037,8.159,14.607,3.11,21.366c-0.24,0.333-0.494,0.644-0.769,0.953
	c-1.171,3.523-4.693,5.875-10.57,10.581l-159.82,115.158C128.996,394.655,117.028,392.658,110.073,384.338z M341.572,385.521
	h-86.963c-9.73,0-17.626-7.896-17.626-17.627c0-9.742,7.896-17.626,17.626-17.626h86.963c9.73,0,17.626,7.884,17.626,17.626
	C359.198,377.625,351.302,385.521,341.572,385.521z"/>
</svg>
