<svg version="1.1" xmlns="http://www.w3.org/2000/svg" xmlns:xlink="http://www.w3.org/1999/xlink" x="0px" y="0px"
	 width="512px" height="512px" viewBox="0 0 512 512" enable-background="new 0 0 512 512" xml:space="preserve">
<path d="M78.419,35.358c26.97,0,48.835,21.846,48.835,48.816c0,26.99-21.865,48.835-48.835,48.835s-48.835-21.846-48.835-48.835
	C29.584,57.204,51.449,35.358,78.419,35.358z"/>
<path d="M360.242,112.416H241.618c-67.768-0.285-122.952,54.417-123.246,122.174c0,0.247,0,0.475,0,0.722v118.626
	c0,67.757,54.938,122.704,122.714,122.704h118.616c67.776,0,122.714-54.947,122.714-122.704c0-0.06,0-0.134,0-0.173V235.312
	C482.511,167.668,427.867,112.721,360.242,112.416z M240.375,245.067c-13.742,14.007-36.232,14.216-50.231,0.476
	c-13.996-13.742-14.215-36.214-0.474-50.221c13.732-14.009,36.224-14.217,50.229-0.477c1.699,1.671,3.219,3.493,4.556,5.467
	C253.907,214.32,252.2,233.015,240.375,245.067z M358.116,417.157c-34.335,0-62.169-27.841-62.169-62.159
	c0-34.333,27.834-62.158,62.169-62.158c34.326,0,62.141,27.825,62.141,62.158C420.257,389.316,392.442,417.157,358.116,417.157
	L358.116,417.157z"/>
</svg>
