<svg version="1.1" xmlns="http://www.w3.org/2000/svg" xmlns:xlink="http://www.w3.org/1999/xlink" x="0px" y="0px"
	 width="256px" height="256px" viewBox="0 0 256 256" enable-background="new 0 0 256 256" xml:space="preserve">
<path d="M240.25,125.5c0-13.85-11.1-25.1-24.75-25.1c-6.5,0-12.35,2.5-16.8,6.65C182.1,95.35,159.5,87.8,134.35,86.7L146,47.85
	l34.8,6.95c0.101,12.35,10.05,22.35,22.25,22.35c12.3,0,22.25-10.1,22.25-22.55c0-12.45-9.95-22.6-22.25-22.6
	c-9.3,0-17.25,5.8-20.6,14l-42.601-8.5l-14.7,49.1l-3.55,0.1c-25.15,1.1-47.75,8.7-64.35,20.35c-4.4-4.15-10.3-6.65-16.8-6.65
	c-13.65,0-24.75,11.25-24.75,25.1c0,9.8,5.5,18.25,13.55,22.4c-0.4,2.449-0.6,4.899-0.6,7.399C28.75,193.2,73.2,224,128,224
	s99.25-30.8,99.25-68.75c0-2.5-0.2-4.95-0.55-7.4C234.75,143.7,240.25,135.25,240.25,125.5z M79.25,144.2
	c0-8.782,7.119-15.9,15.9-15.9s15.9,7.118,15.9,15.9c0,8.781-7.119,15.899-15.9,15.899S79.25,152.981,79.25,144.2z M128,200
	c-23.8-0.1-38-14.25-38.6-14.85l6.3-6.2c0.1,0.1,11.85,12.1,32.3,12.2c20.15-0.101,32.15-12.101,32.25-12.2l6.3,6.2
	C165.95,185.75,151.8,199.9,128,200z M161.15,160.1c-8.781,0-15.9-7.118-15.9-15.899c0-8.782,7.119-15.9,15.9-15.9
	s15.899,7.118,15.899,15.9C177.05,152.981,169.932,160.1,161.15,160.1z"/>
</svg>
